<svg xmlns="http://www.w3.org/2000/svg" viewBox="0 0 31.06 44.64"><defs><style>.cls-1{fill:#a91e22;}.cls-2{fill:#ed1e24;}.cls-3{fill:#fff;}</style></defs><title>Asset 1</title><g id="Layer_2" data-name="Layer 2"><g id="Layer_1-2" data-name="Layer 1"><path class="cls-1" d="M26.64,14.69a12.54,12.54,0,0,0-1.91-1.34A13.21,13.21,0,0,0,26.65,12,12.36,12.36,0,0,0,31,3.67,12.15,12.15,0,0,0,31,1.11L30.81,0H24l.78,1.75a7.06,7.06,0,0,1,.53,2A6.86,6.86,0,0,1,25,6.52a7,7,0,0,1-1.5,2.55A7.46,7.46,0,0,1,21,10.85l-.32.12c-.16.06-.3.12-.44.16l-.18,0c.09-1.52.23-3,.42-4.41a32.36,32.36,0,0,1,1-5.07L22,.08H14.47L15,1.7a34.68,34.68,0,0,1,1,5.08c.21,1.51.35,3.07.43,4.73h-.26a12.48,12.48,0,0,0-3.31-7.23l0,0A10.91,10.91,0,0,0,4.88.92H0V24.23H5.1A10.61,10.61,0,0,0,12.82,21l0,0a12.43,12.43,0,0,0,3.07-5.77h.58v1c0,.31,0,.62,0,.93,0,1,0,1.83,0,2.61,0,.33,0,.66,0,1,0,.53,0,1.08,0,1.62-.1,3.7-.26,7.12-.5,10.46-.23,3.1-.54,6.77-1.09,10.41l-.22,1.45h7.34l-.22-1.45c-.56-3.66-.87-7.32-1.09-10.41-.24-3.34-.41-6.76-.51-10.45h0c0-.59,0-1.2,0-1.78,0-.28,0-.56,0-.83,0-.81,0-1.65,0-2.61,0-.31,0-.61,0-.92s0-.46,0-.69l.28.07.45.17.31.12a7.62,7.62,0,0,1,2.51,1.77A7,7,0,0,1,25,20.18,6.85,6.85,0,0,1,25.31,23,6,6,0,0,1,25,24.23a3.79,3.79,0,0,1-.26.71l-.24.55H31a10.66,10.66,0,0,0,.08-1.26q0-.6,0-1.2A12.37,12.37,0,0,0,26.64,14.69Zm3.08,9.54a1.55,1.55,0,0,1,0,.21c0,.15,0,.3,0,.45l-.06.54H26a7.21,7.21,0,0,0,.42-1.21.13.13,0,0,0,0-.06c0-.13.07-.26.1-.4s.08-.42.1-.63a8,8,0,0,0-2.1-6.34,7.8,7.8,0,0,0-.58-.57,9,9,0,0,0-2-1.37l-.37-.17c-.29-.11-.58-.23-.88-.33l-.45-.12-.46-.12-.44-.06-.27,0-.24,0-.14,0v1c0,.7,0,1.4,0,2.1,0,.88,0,1.75,0,2.63,0,.43,0,.87,0,1.31s0,.88,0,1.31c.07,2.63.17,5.26.33,7.88l.18,2.63c.06.88.13,1.75.2,2.62s.15,1.76.24,2.63c.18,1.75.38,3.5.65,5.25H16.12c.13-.88.25-1.75.36-2.62l.15-1.32c.1-.85.19-1.71.26-2.56a.49.49,0,0,0,0-.12c.09-.85.16-1.71.22-2.57,0-.43.07-.87.1-1.31.25-3.5.41-7,.51-10.51,0-.87,0-1.75.06-2.62s0-1.75,0-2.63,0-1.75,0-2.63v-.56H14.79a11,11,0,0,1-2.94,6.19l0,0A9.25,9.25,0,0,1,5.09,23H1.33V2.2H4.88c.33,0,.66,0,1,0a7.81,7.81,0,0,1,1,.14,8.29,8.29,0,0,1,1.4.39c.3.1.6.23.89.36a8.46,8.46,0,0,1,1.24.71,9.12,9.12,0,0,1,1.46,1.24l0,0c.24.26.47.52.69.8a10.81,10.81,0,0,1,1.12,1.75c.16.31.3.62.43.93a10.52,10.52,0,0,1,.78,4v.16h2.94c0-.15,0-.31,0-.46s0-.31,0-.47c0-.43-.05-.86-.08-1.3-.08-1.32-.21-2.63-.39-4a33.37,33.37,0,0,0-1.07-5.24h4A34.55,34.55,0,0,0,19.18,6.6c-.22,1.62-.36,3.24-.44,4.85,0,.14,0,.27,0,.41l0,.87h.12l.51-.07.44-.07.46-.11.45-.13c.29-.09.59-.22.88-.32l.37-.17a8.76,8.76,0,0,0,2.62-1.94,8,8,0,0,0,2.1-6.34A7.91,7.91,0,0,0,26,1.26h3.62c0,.24.05.48.07.72a12.05,12.05,0,0,1,0,1.59,11.06,11.06,0,0,1-3.54,7.13,4.48,4.48,0,0,1-.4.36c-.28.24-.57.46-.87.67s-.42.29-.64.42-.52.3-.79.44a13.71,13.71,0,0,1-1.53.64l-.34.12.34.11a12.78,12.78,0,0,1,2.5,1.2,11.76,11.76,0,0,1,1.33,1l.4.35a4.54,4.54,0,0,1,.38.38,11,11,0,0,1,3.16,6.75c0,.29,0,.59,0,.88Z"/><path class="cls-1" d="M13.61,11.72l-.15-.89c-.06-.3-.17-.58-.25-.87s-.23-.56-.35-.84a8.27,8.27,0,0,0-2.21-2.84,8.93,8.93,0,0,0-5.35-2h-2V21h2a9.43,9.43,0,0,0,2.17-.34A9.05,9.05,0,0,0,10.65,19a8.27,8.27,0,0,0,2.21-2.84c.12-.28.25-.55.35-.84s.19-.57.25-.87l.15-.89.06-.9Zm-1.33,1.67c0,.15,0,.29-.08.44s0,.23,0,.35-.08.28-.13.43l-.09.3-.17.41c0,.11-.09.21-.13.31A7.16,7.16,0,0,1,9.76,18a7.45,7.45,0,0,1-4.48,1.71H4.62V5.51h.63A7.49,7.49,0,0,1,9.77,7.23a7.16,7.16,0,0,1,1.86,2.38c0,.1.09.2.13.31l.17.41.09.3c.05.15.1.3.13.43s0,.23,0,.35.06.29.08.44l.05.77Z"/><path class="cls-2" d="M29.64,1.26h0c0,.24.05.48.07.72Q29.69,1.62,29.64,1.26Zm0,24.17c0-.18,0-.36.05-.54l-.06.54ZM24.42,14.66a11.76,11.76,0,0,1,1.33,1l.4.35a4.48,4.48,0,0,0-.4-.36A11.38,11.38,0,0,0,24.42,14.66Zm-5.1-.61.44.07.46.11-.46-.12Zm-.64,3.06c0-.69,0-1.39,0-2.1,0,.7,0,1.4,0,2.1,0,.88,0,1.75,0,2.63,0,.43,0,.87,0,1.31l0-1.31C18.69,18.86,18.68,18,18.68,17.11Zm-1-6.56c0,.44.05.87.07,1.31,0,.15,0,.3,0,.46,0-.15,0-.31,0-.47C17.76,11.42,17.73,11,17.7,10.55Z"/><path class="cls-3" d="M26.53,16.38,26.15,16l-.4-.35a11.76,11.76,0,0,0-1.33-1,12.78,12.78,0,0,0-2.5-1.2l-.34-.11.34-.12a13.71,13.71,0,0,0,1.53-.64c.27-.14.53-.29.79-.44s.43-.27.64-.42.59-.44.87-.68l.4-.35a11.06,11.06,0,0,0,3.54-7.13A12.05,12.05,0,0,0,29.7,2c0-.24,0-.48-.07-.72H26a7.91,7.91,0,0,1,.63,2.31,8,8,0,0,1-2.1,6.34,8.76,8.76,0,0,1-2.62,1.94l-.37.17c-.29.11-.58.23-.88.33l-.45.12-.46.11-.44.07-.51.07h-.12l0-.87c0-.14,0-.27,0-.41.08-1.61.22-3.23.44-4.85a34.55,34.55,0,0,1,1.07-5.24h-4A33.37,33.37,0,0,1,17.31,6.6c.18,1.32.31,2.63.39,4,0,.44.06.87.08,1.3,0,.16,0,.32,0,.47s0,.31,0,.46H14.87v-.16a10.52,10.52,0,0,0-.78-4c-.13-.32-.28-.62-.43-.93a10.81,10.81,0,0,0-1.12-1.75c-.22-.28-.45-.54-.69-.8l0,0a9.12,9.12,0,0,0-1.46-1.24,10.77,10.77,0,0,0-1.24-.71c-.29-.13-.59-.26-.89-.36a11.16,11.16,0,0,0-1.4-.39c-.32-.06-.64-.11-1-.14s-.65,0-1,0H1.33V23H5.09a9.25,9.25,0,0,0,6.73-2.81l0,0a11,11,0,0,0,2.94-6.19h3.05v.56c0,.88,0,1.76,0,2.63s0,1.75,0,2.63,0,1.75-.06,2.62c-.1,3.5-.26,7-.51,10.51,0,.44-.07.88-.1,1.31-.06.86-.13,1.72-.22,2.57a.49.49,0,0,1,0,.12c-.07.85-.16,1.71-.26,2.56l-.15,1.32c-.11.87-.23,1.74-.36,2.62h4.25c-.27-1.75-.47-3.5-.65-5.25-.09-.87-.17-1.75-.24-2.63s-.14-1.74-.21-2.62-.12-1.75-.17-2.63c-.16-2.62-.26-5.25-.33-7.88,0-.43,0-.87,0-1.31s0-.88,0-1.31c0-.88,0-1.75,0-2.63,0-.7,0-1.4,0-2.1V13.92h0v0h.14l.24,0,.27,0,.44.06.46.12.45.12c.3.1.59.22.88.33l.37.17a8.38,8.38,0,0,1,2,1.37,7.8,7.8,0,0,1,.58.57,8,8,0,0,1,2.1,6.34c0,.21-.06.42-.1.63a3.43,3.43,0,0,1-.11.46A7.21,7.21,0,0,1,26,25.43h3.62l.06-.54c0-.15,0-.3,0-.45s0-.29,0-.43c0-.29,0-.59,0-.88A11,11,0,0,0,26.53,16.38ZM13.61,13.52l-.15.89c-.06.3-.17.59-.25.87s-.23.56-.35.84A8.27,8.27,0,0,1,10.65,19a9.05,9.05,0,0,1-3.18,1.69A9.43,9.43,0,0,1,5.3,21h-2V4.25h2a8.93,8.93,0,0,1,5.35,2,8.27,8.27,0,0,1,2.21,2.84c.12.28.25.55.35.84s.19.57.25.87l.15.89.06.9Z"/><path class="cls-1" d="M31.05,24.23A10.66,10.66,0,0,1,31,25.49H24.54l.24-.55a3.79,3.79,0,0,0,.26-.71Z"/></g></g></svg>